<svg id="Capa_1" enable-background="new 0 0 512 512" height="512" viewBox="0 0 512 512" width="512" xmlns="http://www.w3.org/2000/svg" xmlns:xlink="http://www.w3.org/1999/xlink"><linearGradient id="SVGID_1_" gradientUnits="userSpaceOnUse" x1="74.981" x2="437.019" y1="437.019" y2="74.981"><stop offset="0" stop-color="#0072ff"/><stop offset="1" stop-color="#00deb0"/></linearGradient><radialGradient id="SVGID_2_" cx="256" cy="256" gradientUnits="userSpaceOnUse" r="256"><stop offset="0" stop-color="#0072ff"/><stop offset=".1662" stop-color="#007df7" stop-opacity=".834"/><stop offset=".4545" stop-color="#0099e3" stop-opacity=".546"/><stop offset=".8282" stop-color="#00c7c1" stop-opacity=".172"/><stop offset="1" stop-color="#00deb0" stop-opacity="0"/></radialGradient><linearGradient id="SVGID_3_" gradientTransform="matrix(-.707 .707 .707 .707 1986.997 -1837.036)" gradientUnits="userSpaceOnUse" x1="2627.288" x2="2780.712" y1="256" y2="256"><stop offset=".0726" stop-color="#00a7d8"/><stop offset="1" stop-color="#00deb0"/></linearGradient><linearGradient id="lg1"><stop offset="0" stop-color="#d4f4f4"/><stop offset=".3345" stop-color="#e9f9f9"/><stop offset=".7128" stop-color="#f9fdfd"/><stop offset="1" stop-color="#fff"/></linearGradient><linearGradient id="SVGID_4_" gradientTransform="matrix(-.707 -.707 -.707 .707 618.039 256)" gradientUnits="userSpaceOnUse" x1="299.435" x2="299.435" xlink:href="#lg1" y1="468.649" y2="148.822"/><linearGradient id="SVGID_5_" gradientTransform="matrix(-.707 -.707 -.707 .707 618.039 256)" gradientUnits="userSpaceOnUse" x1="202.18" x2="202.18" xlink:href="#lg1" y1="468.649" y2="148.822"/><linearGradient id="SVGID_6_" gradientTransform="matrix(-.707 -.707 -.707 .707 618.039 256)" gradientUnits="userSpaceOnUse" x1="309.821" x2="309.821" y1="468.649" y2="256"><stop offset="0" stop-color="#dbf5f6" stop-opacity="0"/><stop offset=".129" stop-color="#c6eff0" stop-opacity=".129"/><stop offset=".3965" stop-color="#8ee0e2" stop-opacity=".397"/><stop offset=".7762" stop-color="#37c9cb" stop-opacity=".776"/><stop offset="1" stop-color="#00babd"/></linearGradient><linearGradient id="lg2"><stop offset="0" stop-color="#00babd"/><stop offset=".2238" stop-color="#37c9cb" stop-opacity=".776"/><stop offset=".6035" stop-color="#8ee0e2" stop-opacity=".397"/><stop offset=".871" stop-color="#c6eff0" stop-opacity=".129"/><stop offset="1" stop-color="#dbf5f6" stop-opacity="0"/></linearGradient><linearGradient id="SVGID_7_" gradientTransform="matrix(-.707 -.707 -.707 .707 618.039 256)" gradientUnits="userSpaceOnUse" x1="202.18" x2="202.18" xlink:href="#lg2" y1="256" y2="43.351"/><linearGradient id="SVGID_8_" gradientTransform="matrix(-.707 -.707 -.707 .707 618.039 256)" gradientUnits="userSpaceOnUse" x1="141.719" x2="298.897" xlink:href="#lg2" y1="309.589" y2="309.589"/><linearGradient id="SVGID_9_" gradientTransform="matrix(.707 .707 .707 -.707 -180.285 330.246)" gradientUnits="userSpaceOnUse" x1="141.719" x2="298.896" xlink:href="#lg2" y1="414.589" y2="414.589"/><linearGradient id="SVGID_10_" gradientUnits="userSpaceOnUse" x1="53.329" x2="292.298" y1="458.67" y2="219.702"><stop offset=".026" stop-color="#00babd"/><stop offset=".1602" stop-color="#3acacc"/><stop offset=".3122" stop-color="#75dadb"/><stop offset=".4592" stop-color="#a7e7e8"/><stop offset=".597" stop-color="#cdf1f2"/><stop offset=".7236" stop-color="#e8f9f9"/><stop offset=".8349" stop-color="#f9fdfd"/><stop offset=".9192" stop-color="#fff"/></linearGradient><linearGradient id="SVGID_11_" gradientTransform="matrix(0 1 1 0 -192.337 192.337)" gradientUnits="userSpaceOnUse" x1="-139.008" x2="-58.473" y1="651.008" y2="570.473"><stop offset="0" stop-color="#00babd"/><stop offset=".1502" stop-color="#3acacc"/><stop offset=".3204" stop-color="#75dadb"/><stop offset=".4849" stop-color="#a7e7e8"/><stop offset=".6392" stop-color="#cdf1f2"/><stop offset=".781" stop-color="#e8f9f9"/><stop offset=".9056" stop-color="#f9fdfd"/><stop offset="1" stop-color="#fff"/></linearGradient><g><circle cx="256" cy="256" fill="url(#SVGID_1_)" r="256"/><circle cx="256" cy="256" fill="url(#SVGID_2_)" r="256"/><path d="m201.756 310.244c30.114 30.167 78.374 30.167 108.487 0 30.166-30.112 30.166-78.375 0-108.487-30.113-30.166-78.374-30.166-108.487 0-30.165 30.113-30.165 78.373 0 108.487z" fill="url(#SVGID_3_)"/><path d="m331.786 180.214c-.516 10.22-1.052 20.443-1.605 30.667-10.25.553-20.501 1.117-30.753 1.692-24.026-24.053-62.831-24.053-86.856 0-25.644 25.644-51.349 51.226-76.79 76.422-23.892 23.592-23.131 61.802 1.153 86.072-.385 10.148-.739 20.294-1.061 30.436-10.084.325-20.163.614-30.239.864-43-42.898-44.896-108.3-2.564-149.653 25.605-25.176 51.428-50.784 77.143-76.499 42.282-42.426 109.291-42.426 151.572-.001z" fill="url(#SVGID_4_)"/><path d="m256.713 103.071c-25.176 25.604-50.784 51.427-76.499 77.143-42.426 42.282-42.426 109.292 0 151.573 42.282 42.426 109.291 42.426 151.573 0 25.715-25.716 51.538-51.323 77.143-76.499 42.332-41.352 40.436-106.753-2.564-149.653-42.9-43-108.302-44.895-149.653-2.564zm32.281 32.711c23.592-23.892 61.801-23.132 86.071 1.153 24.284 24.27 25.045 62.481 1.153 86.071-25.441 25.196-51.146 50.779-76.79 76.422-24.026 24.053-62.831 24.053-86.856 0-24.053-24.026-24.053-62.831 0-86.856 25.644-25.644 51.226-51.349 76.422-76.79z" fill="#fff"/><path d="m299.428 212.572c10.827-10.828 21.622-21.622 32.358-32.359 42.425 42.282 42.425 109.289 0 151.573-25.715 25.716-51.323 51.538-76.499 77.143-41.351 42.33-106.753 40.438-149.653-2.564 10.325-10.325 20.766-20.767 31.3-31.3 24.27 24.284 62.48 25.042 86.072 1.152 25.196-25.441 50.778-51.146 76.422-76.79 24.053-24.025 24.053-62.83 0-86.855z" fill="url(#SVGID_5_)"/><path d="m150.085 274.816c-4.776 4.738-9.544 9.465-14.303 14.178-23.892 23.592-23.131 61.802 1.153 86.072-10.533 10.533-20.975 20.975-31.3 31.3-43-42.898-44.896-108.3-2.564-149.653 25.605-25.176 51.428-50.784 77.143-76.499-25.99 26-36.218 61.408-30.129 94.602z" fill="url(#SVGID_6_)"/><path d="m361.915 237.184c4.776-4.738 9.544-9.465 14.303-14.178 23.891-23.59 23.131-61.801-1.153-86.071 10.533-10.533 20.975-20.975 31.3-31.3 43 42.898 44.896 108.302 2.564 149.653-25.605 25.176-51.428 50.784-77.143 76.499 25.991-26 36.218-61.41 30.129-94.603z" fill="url(#SVGID_7_)"/><path d="m212.572 299.428c24.025 24.053 62.831 24.053 86.856 0-20.847 20.846-41.653 41.734-62.244 62.487-20.763-3.785-40.727-13.889-56.971-30.128-16.239-16.244-26.344-36.208-30.129-56.971 20.753-20.591 41.64-41.397 62.487-62.243-24.052 24.027-24.052 62.828.001 86.855z" fill="url(#SVGID_8_)"/><path d="m299.428 212.572c-24.026-24.053-62.831-24.053-86.856 0 20.846-20.847 41.653-41.734 62.244-62.487 20.764 3.786 40.726 13.887 56.971 30.128 16.239 16.246 26.344 36.208 30.129 56.971-20.753 20.591-41.64 41.397-62.487 62.244 24.052-24.026 24.052-62.831-.001-86.856z" fill="url(#SVGID_9_)"/><path d="m136.934 375.066c-42.712-42.592-43.663-108.744-1.165-150.621-10.922 10.817-21.83 21.582-32.698 32.268-42.333 41.351-40.436 106.752 2.564 149.653 42.899 43 108.302 44.896 149.653 2.564 10.686-10.869 21.451-21.776 32.268-32.698-41.877 42.496-108.03 41.546-150.622-1.166z" fill="url(#SVGID_10_)"/><path d="m375.066 136.935c-42.592-42.712-108.744-43.66-150.621-1.165 10.817-10.922 21.581-21.83 32.268-32.698 41.351-42.329 106.753-40.435 149.653 2.564 42.999 42.898 44.897 108.302 2.564 149.653-10.869 10.686-21.776 21.45-32.698 32.268 42.496-41.878 41.544-108.031-1.166-150.622z" fill="url(#SVGID_11_)"/></g></svg>